<?xml version="1.0" standalone="no"?>
<!DOCTYPE svg PUBLIC "-//W3C//DTD SVG 20010904//EN"
 "http://www.w3.org/TR/2001/REC-SVG-20010904/DTD/svg10.dtd">
<svg version="1.0" xmlns="http://www.w3.org/2000/svg"
 width="512.000000pt" height="512.000000pt" viewBox="0 0 512.000000 512.000000"
 preserveAspectRatio="xMidYMid meet">

<g transform="translate(0.000000,512.000000) scale(0.100000,-0.100000)"
fill="#000000" stroke="none">
<path d="M1982 4390 c-79 -36 -182 -157 -228 -267 -28 -69 -33 -191 -9 -268 9
-31 11 -54 5 -65 -9 -18 -78 -50 -105 -50 -23 0 -18 -16 15 -53 17 -19 30 -37
30 -40 0 -3 -48 -47 -107 -97 -290 -248 -470 -530 -558 -872 -21 -82 -32 -108
-44 -108 -9 0 -27 -7 -39 -16 -19 -13 -22 -24 -22 -77 l0 -63 -42 -19 -43 -20
-3 -81 c-3 -80 -3 -81 -35 -95 -17 -8 -42 -30 -55 -49 -29 -43 -26 -102 7
-148 l21 -31 -25 -37 c-40 -58 -28 -140 25 -177 18 -13 19 -15 5 -27 -68 -56
-55 -187 21 -218 28 -12 29 -16 32 -84 3 -65 9 -85 67 -204 77 -159 135 -228
232 -276 58 -28 75 -32 147 -32 67 0 91 5 141 28 33 15 72 39 88 54 26 25 30
25 70 14 100 -29 258 -62 332 -69 l80 -8 -38 -24 c-25 -15 -35 -27 -29 -33 14
-14 185 -45 314 -57 243 -23 605 -8 795 33 245 53 507 170 646 289 63 54 77
53 77 -7 0 -26 2 -28 27 -21 42 10 179 90 278 161 84 60 93 64 130 59 22 -3
63 -19 92 -35 62 -33 61 -37 38 95 -16 88 -79 297 -118 389 -20 48 -20 50 -2
80 54 92 71 155 85 320 18 209 -8 410 -81 629 -74 223 -209 447 -367 606 -113
114 -281 236 -403 294 -73 34 -88 45 -98 73 -17 47 -82 127 -125 153 -19 12
-51 25 -71 28 -44 7 -44 23 -2 60 35 31 67 46 135 63 82 21 26 74 -79 74 -63
1 -100 -18 -128 -64 l-17 -29 -12 33 c-15 40 -84 106 -142 136 -101 51 -294
63 -550 34 -79 -9 -161 -13 -186 -9 -62 9 -104 47 -111 103 -3 23 -8 42 -12
42 -3 0 -25 -9 -49 -20z m715 -695 c-21 -91 17 -209 98 -303 52 -62 64 -97 72
-209 5 -77 7 -83 28 -83 18 0 28 13 50 67 38 89 77 133 119 133 44 0 71 -22
92 -75 22 -59 14 -128 -24 -209 -50 -106 -127 -166 -191 -149 -28 7 -27 -13 2
-32 22 -14 26 -29 42 -172 l19 -156 -71 -67 c-137 -131 -424 -267 -501 -239
-25 9 -62 77 -62 113 0 20 6 27 28 31 101 22 160 39 196 57 67 34 150 94 183
131 32 37 71 127 80 187 5 33 4 32 -35 -27 -89 -136 -275 -242 -476 -273 -160
-24 -250 27 -326 185 -95 199 -121 352 -103 617 l6 97 101 3 c109 3 116 8 102
62 -10 42 -95 59 -175 36 l-34 -9 6 62 c7 69 38 170 61 192 13 13 22 13 78 -2
87 -23 277 -23 385 1 46 9 120 30 165 46 46 16 86 29 89 29 3 1 2 -19 -4 -44z
m783 -106 c116 -68 211 -143 296 -231 356 -369 510 -901 397 -1370 -9 -38 -19
-68 -23 -68 -3 0 -25 29 -47 63 -22 35 -55 75 -74 90 -19 14 -135 69 -258 121
-124 53 -253 115 -288 137 -83 54 -144 123 -194 220 -44 85 -67 105 -156 133
-47 16 -54 21 -63 54 -18 65 -13 81 43 141 54 60 138 202 187 318 46 109 71
219 77 336 3 59 9 107 12 107 3 0 44 -23 91 -51z m-1648 -107 c-3 -83 0 -118
12 -147 14 -33 15 -53 5 -149 -32 -315 54 -602 239 -796 l50 -52 -24 -35 c-13
-20 -24 -39 -24 -42 0 -9 -64 -51 -78 -51 -8 0 -12 25 -12 78 0 95 -13 112
-90 120 l-50 5 0 62 c0 46 -4 66 -17 76 -13 11 -90 15 -385 17 l-368 3 0 26
c0 42 67 228 126 353 107 223 256 411 437 551 72 56 96 69 125 69 28 0 33 3
22 10 -12 8 -10 10 10 10 l25 0 -3 -108z m1320 -939 l37 -38 -23 -50 c-13 -28
-83 -133 -156 -235 -73 -102 -157 -221 -185 -265 -71 -108 -212 -393 -265
-535 -24 -63 -49 -121 -55 -128 -16 -18 -68 -5 -61 15 3 7 13 42 22 76 8 34
31 109 50 166 19 58 32 106 30 108 -5 5 -80 -221 -99 -297 l-14 -55 -38 1
c-34 1 -46 10 -98 65 l-60 64 11 95 c16 132 75 353 110 408 5 7 29 13 55 14
44 0 49 -3 106 -62 60 -62 122 -96 149 -81 8 5 15 29 17 57 1 27 5 103 9 169
4 72 3 126 -2 134 -13 19 -65 8 -137 -28 -46 -23 -58 -26 -62 -14 -7 18 -13
14 87 53 228 89 363 177 468 303 37 45 42 56 37 85 -6 30 -4 32 12 23 10 -5
35 -27 55 -48z m-1362 -78 l0 -44 -357 -3 c-197 -2 -378 -1 -403 2 -48 5 -57
19 -46 66 l6 24 400 0 400 0 0 -45z m149 -465 c1 -192 -1 -350 -3 -350 -3 0
-61 23 -130 50 -123 50 -310 100 -374 100 -49 0 -93 -25 -120 -66 -13 -20 -19
-33 -14 -30 5 3 13 -10 16 -30 8 -42 63 -106 121 -140 23 -13 97 -45 165 -69
144 -53 141 -52 134 -70 -15 -38 -167 -49 -666 -46 l-168 1 0 76 c0 64 4 81
25 112 32 46 32 94 1 151 l-23 44 23 41 c30 52 30 90 0 143 l-24 41 25 51 c30
59 26 110 -13 166 -19 29 -24 49 -24 100 0 41 4 65 13 68 6 3 242 6 523 6
l512 1 1 -350z m348 274 c15 -46 74 -107 118 -122 l30 -10 -31 -1 c-35 -1
-114 36 -163 78 -31 25 -33 31 -27 65 6 33 10 37 33 34 21 -2 29 -12 40 -44z
m-1423 -140 c34 -33 10 -104 -34 -104 -41 0 -59 68 -27 108 13 17 42 15 61 -4z
m1419 -321 c-23 -71 -52 -178 -64 -240 l-22 -112 -32 52 c-17 29 -39 65 -49
80 -17 24 -18 40 -12 125 10 142 8 137 84 161 37 11 81 29 97 40 17 11 32 20
35 20 3 1 -13 -56 -37 -126z m-1425 91 c39 -27 21 -104 -25 -104 -25 0 -53 30
-53 57 0 22 31 63 48 63 4 0 18 -7 30 -16z m746 -198 c241 -81 402 -154 465
-211 81 -73 112 -219 71 -329 -13 -33 -40 -78 -61 -100 l-38 -41 -108 -3 c-89
-3 -129 1 -228 23 -170 38 -414 119 -525 173 l-94 47 244 6 c266 7 352 20 438
63 57 29 77 56 68 92 -8 29 -32 42 -193 100 -209 76 -263 110 -263 169 0 69
44 71 224 11z m-726 -69 c4 -36 -15 -67 -41 -67 -32 0 -47 18 -47 56 0 44 34
70 65 50 11 -7 21 -25 23 -39z m1407 -427 c-1 -91 -20 -150 -71 -217 -22 -29
-31 -33 -70 -33 -24 0 -44 2 -44 4 0 3 23 42 50 88 52 86 100 215 100 271 l1
32 17 -30 c12 -22 17 -53 17 -115z"/>
<path d="M2336 3414 c-23 -22 -20 -71 3 -84 11 -5 58 -10 106 -10 47 0 106 -5
131 -11 25 -6 47 -9 50 -6 9 9 -15 73 -37 101 -20 25 -24 26 -129 26 -85 0
-112 -3 -124 -16z"/>
<path d="M1992 3238 c-16 -16 -15 -50 1 -72 17 -23 57 -17 68 10 16 45 -37 94
-69 62z"/>
<path d="M2384 3224 c-16 -64 37 -110 70 -62 20 28 20 52 0 72 -25 26 -63 20
-70 -10z"/>
<path d="M3055 3213 c11 -3 27 -10 35 -17 13 -10 13 -9 1 7 -7 9 -23 16 -35
16 -20 -1 -20 -2 -1 -6z"/>
<path d="M2148 3124 c-14 -44 -40 -104 -57 -133 -50 -83 -39 -123 39 -154 28
-11 44 -12 80 -3 62 16 60 39 -4 48 -27 4 -53 12 -57 19 -8 14 -8 22 16 155 9
49 15 103 13 120 -3 24 -8 15 -30 -52z"/>
<path d="M3015 3121 c5 -29 1 -49 -14 -80 -25 -49 -14 -52 34 -10 40 36 44 64
14 103 -30 38 -42 33 -34 -13z"/>
<path d="M2084 2712 c29 -56 52 -67 135 -67 62 0 83 4 114 23 35 22 64 58 54
68 -2 2 -26 -6 -53 -18 -68 -31 -165 -31 -217 0 -48 28 -51 28 -33 -6z"/>
<path d="M2168 2591 c32 -30 69 -39 106 -25 29 11 17 19 -35 22 -28 2 -63 10
-78 19 -22 13 -21 11 7 -16z"/>
<path d="M3662 3137 c-5 -6 -17 -38 -26 -69 -9 -31 -21 -60 -26 -63 -6 -4 -46
-10 -91 -14 -44 -5 -83 -12 -87 -16 -4 -4 21 -32 56 -63 l63 -57 -26 -84 c-15
-52 -22 -88 -16 -94 6 -6 41 8 90 34 l81 43 79 -42 c50 -27 82 -39 86 -32 4 6
-2 38 -13 73 -35 109 -37 102 29 154 32 25 59 51 59 58 0 14 -53 25 -126 25
-57 0 -49 -9 -89 102 -19 54 -28 64 -43 45z"/>
<path d="M2723 2085 c0 -27 2 -38 4 -22 2 15 2 37 0 50 -2 12 -4 0 -4 -28z"/>
<path d="M2712 1970 c0 -19 2 -27 5 -17 2 9 2 25 0 35 -3 9 -5 1 -5 -18z"/>
<path d="M2750 1910 c-34 -39 -60 -74 -56 -77 3 -3 14 5 25 18 10 13 38 48 61
77 23 28 40 52 37 52 -2 0 -32 -32 -67 -70z"/>
<path d="M2561 1709 c-6 -18 -9 -34 -7 -36 2 -2 9 10 15 28 6 18 9 34 7 36 -2
2 -9 -10 -15 -28z"/>
<path d="M2347 1699 c-29 -40 2 -86 47 -69 20 7 26 16 26 38 0 51 -46 71 -73
31z"/>
<path d="M1380 1542 c0 -11 118 -67 125 -60 3 3 -9 11 -27 18 -18 8 -44 22
-57 32 -25 19 -41 23 -41 10z"/>
<path d="M1301 1508 c16 -30 99 -117 124 -130 18 -10 19 -10 6 5 -7 10 -11 17
-7 17 4 0 -2 12 -11 27 -10 15 -12 24 -5 20 7 -5 12 -2 12 8 0 11 -6 14 -25 9
-19 -5 -25 -2 -25 10 0 9 5 16 11 16 5 0 7 -4 4 -10 -3 -5 -2 -10 3 -10 6 0
12 6 15 14 8 19 -25 31 -38 14 -8 -11 -15 -12 -32 -3 -13 7 -20 14 -18 17 3 3
-1 8 -10 12 -13 5 -14 2 -4 -16z"/>
<path d="M1548 1463 c7 -3 16 -2 19 1 4 3 -2 6 -13 5 -11 0 -14 -3 -6 -6z"/>
<path d="M3604 4197 l7 -46 -38 -3 c-44 -4 -43 -23 2 -24 29 0 30 -2 27 -43
-3 -37 -1 -42 15 -39 14 3 17 12 15 41 -3 35 -1 37 28 37 29 0 30 -2 30 -45 0
-34 4 -45 16 -45 12 0 14 8 9 44 l-7 45 43 3 c56 4 57 22 2 26 -43 3 -43 3
-43 43 0 28 -4 39 -15 39 -10 0 -14 -10 -12 -37 2 -36 0 -38 -28 -38 -31 0
-32 3 -23 60 2 12 -4 21 -16 23 -17 4 -18 -1 -12 -41z"/>
<path d="M1185 4018 c-2 -7 -5 -26 -7 -43 -3 -27 -6 -30 -35 -27 -34 4 -54
-15 -32 -29 8 -5 24 -9 37 -9 17 0 22 -6 22 -24 0 -18 -6 -25 -22 -28 -34 -5
-30 -34 5 -30 24 2 27 0 27 -28 0 -39 24 -36 28 3 4 30 26 36 51 13 12 -10 23
-11 41 -4 l25 10 -22 15 c-15 10 -23 26 -23 44 0 24 5 29 35 35 45 8 45 21 -1
30 -33 6 -36 9 -30 35 4 22 2 29 -9 29 -10 0 -15 -10 -15 -30 0 -25 -4 -30
-25 -30 -22 0 -25 4 -25 34 0 35 -16 58 -25 34z m65 -134 c0 -17 -5 -24 -20
-24 -14 0 -20 7 -20 24 0 23 17 38 33 29 4 -2 7 -15 7 -29z"/>
<path d="M4011 3701 c-9 -6 -11 -18 -7 -35 3 -14 3 -26 -2 -26 -4 0 -17 -6
-27 -14 -19 -14 -19 -15 6 -38 14 -14 28 -31 31 -39 4 -12 7 -12 22 0 12 10
20 11 28 3 8 -8 17 -1 35 25 28 41 24 63 -11 63 -23 0 -24 3 -16 24 14 37 -22
60 -59 37z"/>
<path d="M1210 3595 c-15 -19 -4 -52 21 -60 38 -12 65 35 37 63 -16 16 -43 15
-58 -3z"/>
<path d="M4118 3389 c-37 -21 -17 -69 27 -69 23 0 38 37 25 60 -12 22 -26 25
-52 9z"/>
<path d="M888 3340 c-10 -17 -25 -30 -37 -30 -28 0 -51 -10 -51 -24 1 -6 11
-24 24 -40 19 -23 23 -36 18 -68 l-5 -39 37 15 c27 11 43 13 56 6 16 -9 70
-14 70 -7 0 1 -4 17 -10 36 -8 30 -6 38 20 70 l30 36 -22 7 c-13 3 -35 9 -49
12 -14 3 -31 17 -37 31 -15 32 -23 32 -44 -5z"/>
<path d="M4226 3215 c-8 -22 4 -45 24 -45 20 0 36 33 25 50 -9 15 -42 12 -49
-5z"/>
<path d="M4354 3058 c-32 -15 -48 -53 -45 -101 2 -31 47 -67 84 -67 89 0 128
113 58 167 -19 15 -68 15 -97 1z"/>
<path d="M820 2912 c-46 -37 9 -106 59 -75 26 16 26 59 -1 77 -28 20 -31 20
-58 -2z"/>
<path d="M4416 2355 c-3 -9 1 -18 10 -22 19 -7 28 2 21 22 -8 19 -23 19 -31 0z"/>
<path d="M4510 2350 c0 -13 5 -20 13 -17 6 2 12 10 12 17 0 7 -6 15 -12 18 -8
2 -13 -5 -13 -18z"/>
<path d="M4414 2266 c-7 -19 3 -36 22 -36 10 0 14 8 12 22 -4 26 -26 36 -34
14z"/>
<path d="M4516 2273 c-13 -14 -5 -33 14 -33 11 0 20 6 20 14 0 15 -24 28 -34
19z"/>
<path d="M4396 1877 c-14 -10 -17 -21 -12 -41 5 -22 12 -27 33 -24 34 4 52 31
37 56 -15 22 -35 26 -58 9z"/>
<path d="M4513 1854 c-8 -21 13 -42 28 -27 13 13 5 43 -11 43 -6 0 -13 -7 -17
-16z"/>
</g>
</svg>
